<svg id="Twitter" xmlns="http://www.w3.org/2000/svg" width="30" height="24" viewBox="0 0 30 24">
  <path id="Path_2" data-name="Path 2" d="M48,26c11.333,0,17-8.833,17-17V8a12.816,12.816,0,0,0,3-3,17.58,17.58,0,0,1-4,1,6.53,6.53,0,0,0,3-3c-1.167.667-2.667.667-4,1a4.97,4.97,0,0,0-4-2,5.975,5.975,0,0,0-6,6c0,.5-.167.667,0,1-5.167-.333-10-2.167-13-6a5.851,5.851,0,0,0-1,3c0,2.167,1.5,3.833,3,5a6.423,6.423,0,0,1-3-1h0a6.091,6.091,0,0,0,5,6c-.5.167-1.333,1-2,1-.333,0-.667-.833-1-1a7.193,7.193,0,0,0,6,5c-2.167,1.667-4.167,2-7,2a8.031,8.031,0,0,1-2,0,17.259,17.259,0,0,0,10,3" transform="translate(-38 -2)" fill="#002920" fill-rule="evenodd"/>
</svg>
